# xmcd CD database file
#
# Track frame offsets:
#	150
#	6228
#	16363
#	36900
#	45068
#	56318
#	75568
#	93540
#	116938
#	133213
#	143595
#
# Disc length: 2152 seconds
#
# Revision: 1
# Processed by: cddbd v1.5.2PL0 Copyright (c) Steve Scherf et al.
# Submitted via: CDex 1.51
#
DISCID=8708660b
DTITLE=百怪ノ行列 - 浅草キケン野郎
DYEAR=2002
DGENRE=パンク
TTITLE0=命･楽シ･短シ･アリガタシ ～メトロのアコーヂオン弾き～
TTITLE1=命･楽シ･短シ･アリガタシ ～笑天編～
TTITLE2=浅草キケン野郎 ～泣くな！恋の鉄砲玉～
TTITLE3=ジャンジャカン ～第二章･超特急！格安人生回想録～
TTITLE4=銀座の恋の物語
TTITLE5=ウワッ！5963 ～一発必中ミックス･其の一～
TTITLE6=桜橋 ～狂恋純情編～
TTITLE7=夕雲ぬけて ～台風十五号ミックス其ノ一～
TTITLE8=ついにきたぞ夢のハワイ ～BY THE BEAUTIFUL SEA～
TTITLE9=桜橋 ～狂恋純情編～ （オリジナルカラオケ）
TTITLE10=命･楽シ･短シ･アリガタシ （オリジナルカラオケ）
EXTD=YEAR: 2002
EXTT0=
EXTT1=
EXTT2=
EXTT3=
EXTT4=
EXTT5=
EXTT6=
EXTT7=
EXTT8=
EXTT9=
EXTT10=
PLAYORDER=
